# xmcd
# Track frame offsets:
# 150
# 6600
# 29887
# 46762
# 66862
# 84564
# 103614
# 120189
# 136764
# 153789
# 175839
# 192039
# 212064
# 235389
# 254345
# 274520
# 292820
# 309920
#
# Disc length: 4380 seconds
# Revision: 0
# Processed by: cddbd v1.4PL0 Copyright (c) Steve Scherf et al.
# Submitted via: VisiTrax 2.9.5.181 - For more info visit www.synapsa.com
#
DISCID=ee111a12
DTITLE=Mo Thugs - The Movement
DYEAR=2003
DGENRE=Hip Hop
TTITLE0=Intro
TTITLE1=The Movement
TTITLE2=Told Chall
TTITLE3=It Ain't Nottin'
TTITLE4=Do Your Thang
TTITLE5=Fa' Sho
TTITLE6=All Like Long
TTITLE7=Love Is
TTITLE8=Tha Land
TTITLE9=My Dawgs
TTITLE10=It's Fast
TTITLE11=Maximum Maximize
TTITLE12=Smokin on informatikon
TTITLE13=Can you dig it
TTITLE14=Dead Wrong
TTITLE15=Be Free
TTITLE16=Who ya Gonna Run to
TTITLE17=Thug Finale
EXTD=
EXTT0=
EXTT1=
EXTT2=
EXTT3=
EXTT4=
EXTT5=
EXTT6=
EXTT7=
EXTT8=
EXTT9=
EXTT10=
EXTT11=
EXTT12=
EXTT13=
EXTT14=
EXTT15=
EXTT16=
EXTT17=
PLAYORDER=
